<?xml version="1.0" standalone="no"?>
<!DOCTYPE svg PUBLIC "-//W3C//DTD SVG 20010904//EN"
 "http://www.w3.org/TR/2001/REC-SVG-20010904/DTD/svg10.dtd">
<svg version="1.0" xmlns="http://www.w3.org/2000/svg"
 width="1200.000000pt" height="1227.000000pt" viewBox="0 0 1200.000000 1227.000000"
 preserveAspectRatio="xMidYMid meet">

<g transform="translate(0.000000,1227.000000) scale(0.100000,-0.100000)"
fill="#000000" stroke="none">
<path d="M53 12193 c30 -43 555 -807 1167 -1698 613 -891 1642 -2389 2287
-3329 646 -939 1172 -1713 1169 -1720 -2 -6 -431 -506 -952 -1111 -521 -605
-1571 -1824 -2333 -2710 l-1385 -1610 524 -3 524 -2 32 32 c17 18 937 1086
2044 2373 1107 1287 2015 2343 2019 2347 3 3 742 -1064 1641 -2373 l1635
-2379 1783 0 c980 0 1782 3 1782 6 0 3 -370 545 -822 1203 -2819 4103 -3946
5743 -3984 5797 l-43 61 1428 1659 c785 912 1789 2080 2232 2594 l805 935
-525 3 -525 2 -32 -32 c-17 -18 -888 -1030 -1934 -2248 -1047 -1218 -1906
-2219 -1910 -2223 -4 -4 -704 1007 -1556 2247 l-1549 2255 -1788 1 -1788 0 54
-77z m3334 -1180 c4476 -6397 7153 -10229 7153 -10237 0 -3 -364 -6 -808 -6
l-809 0 -948 1358 c-522 746 -1775 2538 -2785 3982 -3184 4551 -3740 5348
-3740 5354 0 3 364 6 809 6 l808 0 320 -457z"/>
</g>
</svg>
