<?xml version="1.0" encoding="UTF-8"?> <svg xmlns="http://www.w3.org/2000/svg" xmlns:xlink="http://www.w3.org/1999/xlink" version="1.1" x="0px" y="0px" viewBox="0 0 1200 700" style="enable-background:new 0 0 1200 700;" xml:space="preserve"> <style type="text/css"> .st0{opacity:0.55;fill:#65325A;} .st1{fill:#57579E;} .st2{fill:#588B94;} .st3{fill:#DD7F40;} .st4{fill:#86A7E0;} .st5{fill:#292966;} .st6{fill:#E1F7F9;} .st7{fill:#893E29;} .st8{fill:#FFFFFF;} .st9{fill:#8AB8BC;} .st10{fill:#E5E5E5;} .st11{fill:#CECECE;} .st12{fill:#191312;} .st13{fill:#434382;} .st14{fill:#8585C1;} .st15{fill:#3C3C7C;} .st16{fill:#334668;} .st17{fill:#AABFC1;} </style> <g id="_x2014_ÎÓÈ_x5F_2"> </g> <g id="_x2014_ÎÓÈ_x5F_1"> <path class="st0" d="M50.25,639.91c0,17.72,14.37,32.09,32.09,32.09h1010.79c31.27,0,56.61-25.35,56.61-56.61v-58.95 c0-29.59-27.59-51.44-56.39-44.67l-67.77,15.93c-19.28,4.53-32.92,21.74-32.92,41.55c0,21.3-17.27,38.57-38.57,38.57H82.34 c-8.86,0-16.89,3.59-22.69,9.4C53.84,623.02,50.25,631.05,50.25,639.91z"></path> <g> <path class="st0" d="M92.86,420.58c-13.17-13.17-20.42-30.67-20.42-49.29V184.71c0-18.62,7.25-36.12,20.42-49.29 c13.17-13.17,30.67-20.42,49.29-20.42h359.89c18.62,0,36.12,7.25,49.29,20.42c13.17,13.17,20.42,30.67,20.42,49.29v186.58 c0,18.62-7.25,36.12-20.42,49.29c-13.17,13.17-30.67,20.42-49.29,20.42H142.15C123.53,440.99,106.02,433.74,92.86,420.58z M142.15,123.93c-33.51,0-60.77,27.26-60.77,60.77v186.58c0,33.51,27.26,60.77,60.77,60.77h359.89 c33.51,0,60.77-27.26,60.77-60.77V184.71c0-33.51-27.26-60.77-60.77-60.77H142.15z"></path> <path class="st1" d="M222.02,319.84c-0.02,0.1-0.04,0.2-0.07,0.3c-1.25,6.14,2.72,12.13,8.86,13.38 c38.29,7.79,72.23-25.93,105.06-58.54c4.25-4.23,8.65-8.6,12.91-12.71c4.51-4.36,4.62-11.54,0.27-16.05 c-4.36-4.51-11.54-4.63-16.05-0.27c-4.36,4.22-8.82,8.65-13.13,12.92c-28.59,28.4-58.16,57.77-84.54,52.4 C229.29,310.05,223.4,313.87,222.02,319.84z"></path> <path class="st1" d="M385.29,305.61l14.92,17.11c12.76-11.12,25.04-23.67,36.92-35.81c15.66-16,31.78-32.47,44.05-39.76 c3.12-1.85,4.5-5.62,3.23-9.02l-2.81-7.47c-1.6-4.25-6.61-6.09-10.56-3.87c-15.22,8.56-31.59,25.3-50.13,44.24 C409.34,282.85,397.37,295.08,385.29,305.61z"></path> <path class="st2" d="M430.29,267.11c2.51-0.47,4.63-2.37,5.24-5.02l6.01-26c0.83-3.56-1.39-7.12-4.96-7.94 c-3.55-0.82-7.12,1.4-7.94,4.96l-6.01,26c-0.83,3.56,1.39,7.12,4.96,7.94C428.5,267.27,429.42,267.28,430.29,267.11z"></path> <path class="st3" d="M425.28,288.79c2.51-0.47,4.63-2.37,5.24-5.02l5.01-21.67c0.83-3.56-1.39-7.12-4.96-7.94 c-3.56-0.82-7.12,1.39-7.94,4.96l-5.01,21.67c-0.83,3.56,1.39,7.12,4.96,7.94C423.49,288.94,424.41,288.95,425.28,288.79z"></path> <path class="st1" d="M186.92,269.63c6.14,27.84,15.11,58.04,43.89,63.9l4.53-22.24c-13.93-2.83-20.38-19.91-26.25-46.54 L186.92,269.63z"></path> <path class="st1" d="M125.55,263.95l3.83,3.88c3.38,3.42,8.91,3.41,12.28-0.01c6.2-6.28,12.09-12.45,17.83-18.46 c27.36-28.67,48.98-51.32,69.46-49.18l2.36-22.57c-31.56-3.3-57.83,24.22-88.24,56.08c-5.66,5.93-11.46,12.01-17.53,18.16 C122.23,255.19,122.24,260.6,125.55,263.95z"></path> <path class="st2" d="M152.9,213.96c2.79-0.52,5.03-2.8,5.36-5.76l3.35-29.39c0.42-3.63-2.19-6.91-5.83-7.33 c-3.64-0.41-6.91,2.2-7.33,5.83l-3.35,29.39c-0.42,3.63,2.19,6.91,5.83,7.33C151.61,214.1,152.27,214.08,152.9,213.96z"></path> <path class="st4" d="M149.15,246.85c2.78-0.52,5.02-2.8,5.36-5.76l3.75-32.89c0.42-3.63-2.19-6.91-5.83-7.33 c-3.64-0.4-6.91,2.2-7.33,5.83l-3.75,32.89c-0.42,3.63,2.19,6.91,5.83,7.33C147.86,247,148.52,246.97,149.15,246.85z"></path> <path class="st5" d="M399.83,270.39c2.96-0.55,5.26-3.09,5.39-6.23l1.88-45.49c0.15-3.65-2.69-6.74-6.34-6.89 c-3.67-0.16-6.74,2.69-6.89,6.34l-1.88,45.49c-0.15,3.65,2.69,6.74,6.34,6.89C398.84,270.52,399.34,270.48,399.83,270.39z"></path> <path class="st4" d="M397.93,316.25c2.96-0.55,5.26-3.09,5.39-6.24l1.89-45.86c0.15-3.65-2.69-6.74-6.34-6.89 c-3.63-0.15-6.74,2.69-6.89,6.34l-1.89,45.86c-0.15,3.65,2.69,6.74,6.34,6.88C396.95,316.38,397.45,316.34,397.93,316.25z"></path> <path class="st2" d="M338.77,350.97c3.01-0.56,5.32-3.17,5.4-6.35l1.09-45.53c0.09-3.66-2.81-6.69-6.46-6.78 c-3.64-0.1-6.69,2.81-6.78,6.46l-1.09,45.53c-0.09,3.66,2.8,6.69,6.46,6.78C337.86,351.09,338.32,351.05,338.77,350.97z"></path> <path class="st3" d="M310.83,308.84c2.68-0.5,4.88-2.64,5.33-5.49l3.29-21.1c0.56-3.61-1.91-7-5.52-7.56 c-3.62-0.56-6.99,1.91-7.56,5.52l-3.29,21.1c-0.56,3.61,1.91,7,5.52,7.56C309.36,308.99,310.11,308.98,310.83,308.84z"></path> <path class="st1" d="M306.56,336.22c2.68-0.5,4.88-2.64,5.33-5.49l4.27-27.37c0.56-3.61-1.91-7-5.52-7.56 c-3.62-0.56-6.99,1.91-7.56,5.52l-4.27,27.37c-0.56,3.61,1.91,7,5.52,7.56C305.09,336.37,305.84,336.35,306.56,336.22z"></path> <path class="st4" d="M259.08,324.33c1.94-0.36,3.7-1.59,4.68-3.48l9.68-18.8c1.67-3.25,0.39-7.24-2.85-8.92 c-3.26-1.67-7.25-0.4-8.92,2.85l-9.68,18.8c-1.67,3.25-0.39,7.24,2.85,8.92C256.19,324.4,257.68,324.59,259.08,324.33z"></path> <path class="st5" d="M268.76,305.53c1.94-0.36,3.7-1.59,4.68-3.48l18.48-35.87c1.67-3.25,0.39-7.24-2.85-8.92 c-3.26-1.67-7.25-0.39-8.92,2.85l-18.48,35.87c-1.67,3.25-0.39,7.24,2.85,8.92C265.88,305.6,267.37,305.79,268.76,305.53z"></path> <path class="st3" d="M228.34,319.04c1.85-0.35,3.54-1.47,4.54-3.23l21.21-37.15c1.81-3.18,0.71-7.22-2.47-9.03 c-3.17-1.82-7.23-0.7-9.03,2.47l-21.21,37.15c-1.81,3.18-0.71,7.22,2.47,9.03C225.26,319.09,226.85,319.32,228.34,319.04z"></path> <path class="st2" d="M249.55,281.89c1.85-0.35,3.54-1.47,4.54-3.23l24.84-43.52c1.81-3.18,0.71-7.22-2.47-9.03 c-3.17-1.82-7.23-0.71-9.03,2.47l-24.84,43.52c-1.81,3.17-0.71,7.22,2.47,9.03C246.47,281.94,248.06,282.17,249.55,281.89z"></path> <path class="st5" d="M232.27,252.78c1.69-0.32,3.26-1.28,4.29-2.83l27.2-40.69c2.03-3.04,1.22-7.15-1.82-9.18 c-3.04-2.03-7.15-1.22-9.18,1.82l-27.2,40.69c-2.03,3.04-1.22,7.15,1.82,9.18C228.87,252.78,230.63,253.08,232.27,252.78z"></path> <path class="st4" d="M205.01,293.56c1.69-0.32,3.26-1.28,4.29-2.83l27.26-40.78c2.03-3.04,1.22-7.15-1.82-9.18 c-3.04-2.04-7.15-1.22-9.18,1.82l-27.26,40.78c-2.03,3.04-1.22,7.15,1.82,9.18C201.62,293.56,203.37,293.86,205.01,293.56z"></path> <path class="st2" d="M197.1,248.81c1.55-0.29,3.01-1.13,4.04-2.48l20.34-26.53c2.22-2.9,1.67-7.06-1.23-9.28 c-2.9-2.23-7.07-1.67-9.28,1.23l-20.34,26.53c-2.22,2.9-1.67,7.06,1.23,9.28C193.41,248.74,195.32,249.14,197.1,248.81z"></path> <path class="st3" d="M217.43,222.28c1.55-0.29,3.01-1.13,4.04-2.48l3.4-4.44c2.22-2.9,1.67-7.06-1.23-9.28 c-2.91-2.23-7.07-1.67-9.28,1.23l-3.4,4.44c-2.22,2.9-1.68,7.06,1.23,9.28C213.74,222.21,215.65,222.61,217.43,222.28z"></path> <path class="st6" d="M138.31,167.05l-0.31,2.97c-0.5,4.77,2.52,9.11,7.09,10.53c23.22,7.25,30.64,34.82,38.78,74.57 c0.98,4.79,1.99,9.73,3.05,14.51l22.16-4.89c-1.02-4.61-1.97-9.25-2.98-14.17c-7.45-36.39-16.58-80.92-55.28-92.03 C144.93,156.84,138.95,160.96,138.31,167.05z"></path> <path class="st6" d="M231.31,177.6l-2.36,22.57c29.66,3.1,37.79,32.18,46.8,76.19c7.24,35.32,14.72,71.85,46.94,78.41 c29.62,6.03,58.43-15.41,77.52-32.05l-14.92-17.11c-24.57,21.43-43.03,29.98-58.07,26.92c-16.3-3.32-22.16-26.19-29.23-60.72 C289.85,232.09,279.73,182.67,231.31,177.6z"></path> <path class="st6" d="M333,245.95l15.78,16.32c19.27-18.63,39.26-35.65,54.94-34.01c29.66,3.1,37.79,32.18,46.8,76.19 c0.47,2.31,0.96,4.66,1.45,7.02c0.97,4.66,5.58,7.63,10.23,6.59l5.47-1.22c4.56-1.02,7.46-5.5,6.51-10.07 c-0.47-2.25-0.94-4.53-1.42-6.87c-8.14-39.72-18.26-89.15-66.68-94.21C379.91,202.95,354.64,225.04,333,245.95z"></path> <path class="st4" d="M339.93,302.31c3.01-0.56,5.32-3.17,5.4-6.35l0.94-39.43c0.09-3.65-2.81-6.69-6.46-6.78 c-3.64-0.09-6.69,2.81-6.78,6.46l-0.94,39.43c-0.09,3.65,2.8,6.69,6.46,6.78C339.02,302.43,339.48,302.39,339.93,302.31z"></path> <path class="st2" d="M339.85,305.44c3.01-0.56,5.32-3.17,5.4-6.35l0.07-3.13c0.09-3.65-2.81-6.69-6.47-6.77 c-3.68-0.1-6.69,2.81-6.77,6.46l-0.07,3.13c-0.09,3.65,2.81,6.69,6.47,6.77C338.95,305.56,339.41,305.52,339.85,305.44z"></path> <path class="st3" d="M220.84,217.83c1.55-0.29,3.01-1.13,4.04-2.48l15.5-20.22c2.22-2.9,1.67-7.06-1.23-9.28 c-2.91-2.22-7.07-1.67-9.28,1.23l-15.5,20.22c-2.22,2.9-1.67,7.06,1.23,9.28C217.15,217.77,219.06,218.17,220.84,217.83z"></path> </g> <path class="st7" d="M448.48,303.26c-6.62-4.78-15.77,2.18-12.4,9.62c0.13,0.3,0.29,0.59,0.46,0.88l5.07,8.73 c2.15,3.7,3.32,7.88,3.41,12.15l0.58,27.04c0.21,10.14,7.23,20.86,18.68,21.37c10.64,0.47,19.36-8.43,19.46-19.08l0.03-3.42 c-1.41-3.74-2.82-9.88-2.34-13.91c0.08-0.68,0.16-1.37,0.24-2.07c1.15-9.86-3.12-19.57-11.16-25.39L448.48,303.26z"></path> <polygon class="st7" points="456.08,409.73 451.93,374.34 482.65,365.66 491.79,401.01 "></polygon> <g> <path class="st8" d="M847.7,659.83v-78.8c0-2.53-0.55-5.03-1.62-7.33l0,0c-0.56-1.2,0.32-2.58,1.64-2.58l18.76,0 c1.28,0,2.13,1.33,1.59,2.49l-0.04,0.08c-1.07,2.31-1.63,4.81-1.63,7.34v78.8c0,5.16-4.17,9.34-9.33,9.35l0,0 C851.91,669.19,847.7,665,847.7,659.83z"></path> <path class="st9" d="M863.45,588.5v70.3c0,3.53-2.85,6.39-6.38,6.4c-3.54,0.01-6.41-2.86-6.41-6.4v-71.96 C855.44,586.57,858.67,588.53,863.45,588.5z"></path> <path class="st9" d="M857.07,665.2c-3.54,0.01-6.41-2.86-6.41-6.4v-70.32c4.56-0.24,7.79-2.15,12.79-1.55v71.87 C863.45,662.33,860.6,665.19,857.07,665.2z"></path> <path class="st9" d="M862.5,662.15c-1.12,1.82-3.13,3.04-5.42,3.05c-2.31,0.01-4.33-1.22-5.46-3.05H862.5z"></path> <path class="st8" d="M849.01,573.94h4.11c0.52,0,0.94-0.42,0.94-0.94l0,0c0-0.52-0.42-0.94-0.94-0.94h-4.11 c-0.52,0-0.94,0.42-0.94,0.94l0,0C848.07,573.52,848.49,573.94,849.01,573.94z"></path> <path class="st8" d="M809.24,659.83v-78.8c0-2.53-0.55-5.03-1.62-7.33l0,0c-0.56-1.2,0.32-2.58,1.64-2.58l18.76,0 c1.28,0,2.13,1.33,1.59,2.49l-0.04,0.08c-1.07,2.31-1.63,4.81-1.63,7.34v78.8c0,5.16-4.17,9.34-9.33,9.35l0,0 C813.44,669.19,809.24,665,809.24,659.83z"></path> <path class="st3" d="M818.61,665.2c-3.44,0.01-6.24-2.78-6.24-6.22v-36.31c3.92-0.68,7.17-2.16,12.44-0.78v37.09 C824.82,662.41,822.04,665.19,818.61,665.2z"></path> <path class="st3" d="M824.82,622.96v36.02c0,3.43-2.78,6.21-6.2,6.22c-3.44,0.01-6.24-2.78-6.24-6.22v-37.63 C817.02,621.08,820.16,622.99,824.82,622.96z"></path> <path class="st3" d="M823.89,662.23c-1.09,1.77-3.04,2.96-5.28,2.96c-2.25,0.01-4.21-1.18-5.31-2.96H823.89z"></path> <path class="st8" d="M810.55,573.94h4.11c0.52,0,0.94-0.42,0.94-0.94l0,0c0-0.52-0.42-0.94-0.94-0.94h-4.11 c-0.52,0-0.94,0.42-0.94,0.94l0,0C809.61,573.52,810.03,573.94,810.55,573.94z"></path> <path class="st2" d="M849.94,611.48v-31.16c0-0.86,0.7-1.56,1.56-1.56l0,0c0.86,0,1.56,0.7,1.56,1.56v31.16H849.94z"></path> <path class="st2" d="M851.5,615.18c0.86,0,1.56,0.7,1.56,1.56v41.75c0,1.4-1.7,2.1-2.68,1.09l0,0c-0.29-0.29-0.45-0.69-0.45-1.09 v-41.75C849.94,615.88,850.64,615.18,851.5,615.18L851.5,615.18z"></path> <path class="st2" d="M811.47,611.48v-31.16c0-0.86,0.7-1.56,1.56-1.56c0.86,0,1.56,0.7,1.56,1.56v31.16H811.47z"></path> <path class="st2" d="M813.04,615.18c0.86,0,1.56,0.7,1.56,1.56v41.75c0,1.4-1.7,2.1-2.68,1.09l0,0c-0.29-0.29-0.45-0.69-0.45-1.09 v-41.75C811.47,615.88,812.17,615.18,813.04,615.18L813.04,615.18z"></path> <path class="st1" d="M814.42,671.88h-28.67V622.1c0-7.92,6.42-14.34,14.34-14.34h14.32v4h-7.98c-5.71,0-10.35,4.63-10.35,10.35 v45.78h18.32V671.88z"></path> <path class="st1" d="M885.45,667.88c0.01,0,0.03,0,0.04,0h23.96V622.1c0-5.71-4.63-10.35-10.35-10.35h-13.62 c-0.01,0-0.03,0-0.04,0l-2.08-4h21.37c7.92,0,14.34,6.42,14.34,14.34v49.78h-35.72L885.45,667.88z"></path> <path class="st4" d="M783.64,622.1c0-7.92,6.42-14.34,14.34-14.34h98.3c7.92,0,14.34,6.42,14.34,14.34v49.78H783.64V622.1z M797.98,611.76c-5.71,0-10.35,4.63-10.35,10.35v45.78h118.99V622.1c0-5.71-4.63-10.35-10.35-10.35H797.98z"></path> </g> <path class="st10" d="M558.78,533.01c-34.94-7.29-71.26-21.23-93.23-40.59l-13.6-100.19l43.23-4.45l16.56,70.85l85.54,20.46 l29.05-7.76l58.29,13.69c21.74,5.1,36.39,24.22,35.93,46.89l-2.84,139.97H573.33l-12.25-53.32c-3.61-15.72-2.91-32.12,2.03-47.47 c3.48-10.84,2.58-22.34-2.08-32.25C560.13,536.94,559.39,534.99,558.78,533.01z"></path> <path class="st11" d="M613.32,671.88c-8.29-35.69-13.36-77.95,0.27-126.66c0.28-1,1.32-1.58,2.32-1.3c1,0.28,1.58,1.32,1.3,2.32 c-13.52,48.29-8.33,90.25-0.04,125.65H613.32z"></path> <path class="st12" d="M667.34,465.08c24.93-0.99,38.25-16.14,26.98-37.84c-1.76-3.38-3.73-6.84-5.81-10.44 c-4.15-7.19-1.19-25.57-1.9-33.75c-4.08-47.58-90.07-50.72-98.44-5.19c-4.47,24.33-13.63,29.14-20.54,40.23 c-7.41,11.89-0.61,27.39,13.32,30.86C608.99,455.9,640.77,466.13,667.34,465.08z"></path> <path class="st7" d="M585.34,407.01c1.58-3.97,3.08-7.97,4.15-12.11l3.53-13.68c3.38-13.13,16.77-21.03,29.9-17.66l12.8,3.29 c12.84,3.3,20.5,16.47,17.02,29.26l-0.07,0.26c-1.23,4.4,0.06,9.08,3.34,12.22c3.49-2.77,5.91-5.18,10.45-2.82 c11.39,5.93,2.22,25.52-9.96,28.97c-2.47,0.7-5.08-0.58-6.34-2.82l0,0l-7.61,10.2c-9.83,13.17-26.57,19.22-42.55,15.37 c-8.15-1.97-14.38-8.58-15.92-16.82l-1.32-7.08C581.06,424.62,581.99,415.4,585.34,407.01z"></path> <path class="st12" d="M653.41,417.52c-9.32-4.01-16.39-21.1-19.42-29.95c-4.28-12.53-5.12-26.1-1.36-38.8 c19.2,2,40.97,28.57,34.77,47.66C665.64,401.82,657.71,414.38,653.41,417.52z"></path> <path class="st7" d="M591.16,668.88l-16.15,3.01h-96.67l0.31-1.3c2.52-10.41,9.86-19.1,19.83-23c8.51-3.32,17.75-4.25,26.73-2.71 l11.84,2.03c7.07,1.21,14.33,0.71,21.16-1.48l20.24-6.47L591.16,668.88z"></path> <path class="st10" d="M578.47,638.97l12.29,29.98l1.2,2.93l0.05,0.12h20.46l0.38-0.12l0.44-0.14l3.6-1.1l55.19-16.84 c2.19-0.41,4.3-1.06,6.3-1.92c7.8-3.36,13.9-9.96,16.57-18.24c2.83-8.78,5.34-17.39,7.54-25.83c1.17-4.47,2.25-8.89,3.25-13.27 c5.9-25.95,8.85-50.28,9.21-73.2c0.12-7.2-7.6-10.56-13.72-6.08c-22.04,16.1-37.26,40.57-41.45,66.65l-4.16,25.9l-1.1,6.83 l-44.57,14.25l-3.67,1.17L578.47,638.97z"></path> <path class="st11" d="M577.63,639.14c0.19,0,0.38-0.03,0.57-0.09l76.05-24.32c0.67-0.22,1.39-1.06,1.45-1.77l6.11-75.41 c0.08-1.04-0.69-1.94-1.72-2.03c-1.03-0.08-1.94,0.69-2.03,1.72l-6.06,74.25l-74.95,23.97c-0.99,0.32-1.54,1.37-1.22,2.36 C576.1,638.63,576.83,639.14,577.63,639.14z"></path> <path class="st11" d="M720.03,561.15c-1.49,10.96-3.58,22.39-6.18,33.82c-2.91,12.77-6.55,25.97-10.83,39.26 c-3.56,11.06-12.83,19.25-24.21,21.41l-53.24,16.25h-12.89l65.13-19.88c0.07-0.02,0.14-0.04,0.2-0.05 c10.06-1.87,18.27-9.11,21.42-18.89c4.25-13.18,7.86-26.28,10.74-38.94c6.22-27.35,9.48-54.64,8.58-75.51 C721.84,526.93,721.84,541.03,720.03,561.15z"></path> <path class="st7" d="M601.06,487.15L598.7,479c5.32-1.79,8.85-6.84,8.68-12.46l-1.14-38.02l47.83-1.28 c-2.54,10.24-2.54,27.01-1.79,33.87c0.97,8.8,6.82,16.29,15.15,19.3l-9.07,10.14L601.06,487.15z"></path> <polygon class="st8" points="658.36,490.54 615.84,538.05 601.06,487.15 "></polygon> <path class="st11" d="M586.02,486.21l11.23,10.84c0.64,0.62,0.76,1.61,0.28,2.36l-8.54,13.42l26.35,30.47l42.14-25.87l-3.2-12.82 c-0.12-0.49-0.04-1.01,0.22-1.44c0.26-0.43,0.69-0.74,1.18-0.85l22.41-5.23l4.07-12.64l2.47,0.58c0.4,0.09,0.8,0.2,1.19,0.31 l-4.48,13.92c-0.2,0.63-0.72,1.1-1.36,1.25l-21.58,5.04l3.08,12.3c0.2,0.8-0.14,1.63-0.84,2.06l-44.68,27.43 c-0.3,0.19-0.65,0.28-0.98,0.28c-0.53,0-1.05-0.22-1.42-0.65l-28.31-32.73c-0.54-0.63-0.61-1.54-0.16-2.24l8.46-13.3l-11.72-11.32 c-0.4-0.38-0.61-0.93-0.57-1.48c0.04-0.55,0.32-1.06,0.76-1.39l9.28-6.84l4.79,1.15L586.02,486.21z"></path> <g> <path class="st0" d="M761.83,493.78c-12.21-12.21-18.94-28.45-18.94-45.72v-156.8c0-17.27,6.72-33.5,18.94-45.72 c12.21-12.21,28.45-18.94,45.72-18.94h156.8c17.27,0,33.5,6.72,45.72,18.94c12.21,12.21,18.94,28.45,18.94,45.72v156.8 c0,17.27-6.73,33.5-18.94,45.72c-12.21,12.21-28.45,18.94-45.72,18.94h-156.8C790.28,512.71,774.04,505.99,761.83,493.78z M807.55,236.42c-30.24,0-54.84,24.6-54.84,54.84v156.8c0,30.24,24.6,54.84,54.84,54.84h156.8c30.24,0,54.84-24.6,54.84-54.84 v-156.8c0-30.24-24.6-54.84-54.84-54.84H807.55z"></path> <path class="st1" d="M829.98,353.24c1.25,0,2.5-0.52,3.38-1.54c1.62-1.87,1.42-4.69-0.45-6.31l-15.16-13.15 c-2.93-2.54-6.66-3.8-10.55-3.5c-3.87,0.29-7.39,2.07-9.91,5.01c-2.01,2.34-3.3,5.19-3.74,8.24c-0.35,2.45,1.35,4.71,3.8,5.06 c2.44,0.34,4.71-1.35,5.06-3.8c0.19-1.35,0.77-2.62,1.67-3.67c0.96-1.12,2.31-1.8,3.78-1.91c1.42-0.09,2.9,0.36,4.02,1.34 l15.16,13.15C827.9,352.88,828.95,353.24,829.98,353.24z"></path> <path class="st2" d="M965.5,369.42c0.81,0,1.64-0.22,2.38-0.69c2.09-1.32,2.72-4.08,1.4-6.17c-2.29-3.65-5.86-6.21-10.05-7.21 l-15.6-3.73c-2.41-0.58-4.82,0.91-5.39,3.31c-0.57,2.4,0.91,4.82,3.31,5.39l15.6,3.73c1.9,0.45,3.52,1.62,4.56,3.27 C962.56,368.68,964.01,369.42,965.5,369.42z"></path> <path class="st1" d="M901.01,466.34c0.36,0,0.72-0.01,1.09-0.04c3.87-0.28,7.39-2.06,9.92-5.01c1.61-1.88,1.39-4.7-0.48-6.31 c-1.88-1.61-4.7-1.39-6.31,0.48c-0.96,1.12-2.31,1.8-3.78,1.91c-1.46,0.1-2.9-0.36-4.02-1.33l-5.8-5.03 c-6.46-5.61-7.54-15.05-2.51-21.97c1.46-2,1.01-4.8-0.98-6.25c-2.01-1.46-4.8-1.02-6.25,0.99c-7.79,10.7-6.12,25.32,3.88,34 l5.8,5.03C894.21,465.1,897.53,466.34,901.01,466.34z"></path> <path class="st1" d="M938.69,442.8c1.13,0,2.27-0.15,3.39-0.44c4.26-1.12,7.68-4.27,9.15-8.42c2.07-5.83,1.32-12.17-2.03-17.38 c-1.33-2.08-4.11-2.68-6.18-1.34c-2.08,1.34-2.68,4.11-1.34,6.18c1.84,2.87,2.25,6.35,1.12,9.55c-0.49,1.38-1.58,2.38-2.99,2.75 c-1.4,0.37-2.85,0.04-3.95-0.92l-30.53-26.55c-1.87-1.63-4.7-1.42-6.31,0.44c-1.62,1.86-1.42,4.69,0.44,6.31l30.53,26.55 C932.43,441.67,935.53,442.8,938.69,442.8z"></path> <path class="st6" d="M849.79,425.47c0.01,0,0.02,0,0.04,0c8.26-0.01,15.75-3.88,20.54-10.61l27.01-37.96 c1.43-2.01,0.96-4.81-1.05-6.24c-2.02-1.43-4.81-0.96-6.24,1.05l-27,37.96c-3.09,4.35-7.92,6.84-13.26,6.85c-0.01,0-0.01,0-0.02,0 c-5.32,0-10.15-2.48-13.25-6.82l-18.64-26.06c-1.44-2.01-4.23-2.47-6.24-1.04c-2.01,1.44-2.47,4.23-1.03,6.24l18.64,26.06 C834.06,421.63,841.54,425.47,849.79,425.47z"></path> <path class="st6" d="M822.17,345.22c1.26,0,2.52-0.53,3.4-1.56c1.61-1.88,1.39-4.7-0.49-6.31L811,325.3 c-1.81-1.55-2.9-3.71-3.09-6.08c-0.18-2.37,0.57-4.68,2.12-6.49c1.21-1.41,2.9-2.26,4.75-2.4c1.87-0.13,3.65,0.46,5.06,1.68 l0.67,0.58c3.29,2.85,7.71,4.22,12.14,3.79c11.59-1.16,20.57,0.35,25.99,4.39c1.99,1.48,4.79,1.07,6.26-0.91 c1.48-1.98,1.07-4.79-0.91-6.26c-7.34-5.47-18.18-7.53-32.23-6.12c-1.97,0.21-3.95-0.4-5.38-1.64l-0.67-0.58 c-3.22-2.79-7.32-4.15-11.58-3.84c-4.25,0.31-8.11,2.27-10.89,5.5c-3.11,3.62-4.62,8.24-4.25,13c0.37,4.76,2.57,9.08,6.19,12.19 l14.08,12.05C820.1,344.87,821.14,345.22,822.17,345.22z"></path> <path class="st6" d="M814.3,368.22c1.26,0,2.52-0.53,3.4-1.57c1.61-1.88,1.39-4.7-0.49-6.31l-12.33-10.56 c-1.9-1.62-2.81-4.07-2.46-6.54c0.35-2.45-1.35-4.71-3.79-5.06c-2.4-0.34-4.71,1.35-5.07,3.79c-0.79,5.53,1.26,10.99,5.5,14.61 l12.33,10.56C812.24,367.87,813.28,368.22,814.3,368.22z"></path> <path class="st6" d="M949.74,337.56c1.43,0,2.83-0.68,3.7-1.95l11.34-16.56c2.19-3.2,3-7.06,2.28-10.87 c-0.72-3.81-2.89-7.11-6.1-9.29c-3.59-2.43-7.91-3.31-12.15-2.49c-4.25,0.82-7.93,3.25-10.35,6.84l-9.08,13.45 c-1.39,2.05-0.85,4.83,1.2,6.21c2.05,1.39,4.83,0.84,6.21-1.2l9.09-13.45c1.09-1.61,2.73-2.69,4.63-3.06 c1.91-0.37,3.83,0.03,5.44,1.11c1.23,0.83,2.05,2.09,2.33,3.54c0.27,1.45-0.03,2.92-0.87,4.15l-11.34,16.56 c-1.4,2.04-0.88,4.82,1.16,6.22C947.99,337.31,948.87,337.56,949.74,337.56z"></path> <path class="st6" d="M908.62,462.85c1.26,0,2.52-0.53,3.4-1.56c2.82-3.29,4.19-7.47,3.85-11.79c-0.34-4.32-2.33-8.24-5.62-11.06 l-12.33-10.56c-1.88-1.61-4.71-1.39-6.31,0.49c-1.61,1.88-1.39,4.7,0.49,6.31l12.33,10.56c1.47,1.26,2.36,3.02,2.51,4.95 c0.15,1.93-0.46,3.8-1.72,5.27c-1.61,1.88-1.39,4.7,0.48,6.31C906.55,462.5,907.59,462.85,908.62,462.85z"></path> <path class="st6" d="M885.49,430.88c1.38,0,2.75-0.64,3.62-1.84l21.74-29.88c1.46-2,1.01-4.8-0.98-6.25 c-2-1.46-4.8-1.01-6.25,0.99l-21.74,29.88c-1.46,2-1.01,4.8,0.98,6.25C883.66,430.6,884.58,430.88,885.49,430.88z"></path> <path class="st5" d="M888.38,432.6c2.49,0,4.93-1.18,6.46-3.39l63.47-92.03c2.45-3.56,1.56-8.44-2-10.89 c-3.56-2.45-8.44-1.56-10.89,2l-63.47,92.03c-2.45,3.56-1.56,8.44,2,10.89C885.3,432.15,886.85,432.6,888.38,432.6z"></path> <path class="st5" d="M871.84,413.51c2.49,0,4.93-1.18,6.46-3.39l63.47-92.03c2.45-3.56,1.56-8.44-2-10.89 c-3.56-2.45-8.43-1.56-10.89,2l-63.47,92.03c-2.45,3.56-1.56,8.44,2,10.89C868.76,413.06,870.31,413.51,871.84,413.51z"></path> <path class="st1" d="M899.7,443.27c2.22,0,4.42-0.94,5.97-2.76c2.8-3.29,2.4-8.24-0.9-11.04l-85.19-72.39 c-3.29-2.8-8.24-2.4-11.04,0.9c-2.8,3.29-2.4,8.24,0.9,11.04l85.19,72.39C896.11,442.66,897.91,443.27,899.7,443.27z"></path> <path class="st6" d="M978.84,391.73c1.75,0,3.42-1.04,4.13-2.76c0.95-2.28-0.13-4.9-2.42-5.85l-8.24-3.42 c-1.21-0.5-1.83-1.87-1.4-3.11c1.61-4.7,1.02-9.81-1.63-14.02c-1.31-2.09-4.08-2.73-6.17-1.41c-2.09,1.31-2.72,4.07-1.41,6.17 c1.2,1.92,1.47,4.24,0.74,6.37c-1.95,5.7,0.88,11.97,6.44,14.27l8.24,3.42C977.69,391.62,978.27,391.73,978.84,391.73z"></path> <path class="st2" d="M930.11,387.67c1.76,0,3.49-0.83,4.58-2.37c1.78-2.53,1.17-6.02-1.35-7.79c-0.95-0.66-2.55-2.11-2.72-4.35 c-0.18-2.43,1.36-5.35,4.36-8.22c3.74-3.58,10.39-4.21,16.17-1.53c2.8,1.3,6.13,0.08,7.43-2.72c1.3-2.8,0.08-6.13-2.72-7.43 c-10.02-4.64-21.52-3.19-28.61,3.6c-6.99,6.7-8.09,13.02-7.78,17.14c0.38,4.98,3.09,9.59,7.43,12.66 C927.87,387.34,928.99,387.67,930.11,387.67z"></path> <path class="st2" d="M910.77,379.01c1.76,0,3.49-0.83,4.58-2.37c1.78-2.53,1.17-6.02-1.35-7.79c-0.95-0.67-2.55-2.11-2.72-4.35 c-0.19-2.43,1.36-5.35,4.36-8.22c3.74-3.58,10.38-4.21,16.16-1.53c2.8,1.31,6.13,0.08,7.43-2.72c1.3-2.8,0.08-6.13-2.72-7.43 c-10.01-4.65-21.51-3.2-28.61,3.6c-6.99,6.7-8.09,13.02-7.78,17.14c0.38,4.98,3.09,9.59,7.43,12.66 C908.53,378.68,909.66,379.01,910.77,379.01z"></path> <path class="st2" d="M891.26,370.16c1.76,0,3.49-0.83,4.57-2.37c1.78-2.53,1.18-6.02-1.35-7.79c-0.95-0.66-2.55-2.11-2.72-4.35 c-0.18-2.43,1.36-5.35,4.36-8.22c3.74-3.58,10.39-4.21,16.17-1.53c2.8,1.3,6.13,0.08,7.43-2.72c1.3-2.8,0.08-6.13-2.72-7.43 c-10.02-4.64-21.52-3.19-28.61,3.6c-6.99,6.7-8.09,13.01-7.78,17.13c0.37,4.98,3.08,9.6,7.43,12.66 C889.02,369.83,890.14,370.16,891.26,370.16z"></path> <path class="st2" d="M872.02,361.42c1.75,0,3.49-0.83,4.58-2.37c1.78-2.53,1.17-6.02-1.35-7.79c-0.94-0.66-2.55-2.11-2.72-4.35 c-0.18-2.43,1.37-5.35,4.36-8.22c3.74-3.58,10.38-4.21,16.16-1.53c2.8,1.31,6.13,0.08,7.43-2.72c1.3-2.8,0.08-6.13-2.72-7.43 c-10.01-4.65-21.51-3.2-28.61,3.6c-6.99,6.7-8.09,13.02-7.78,17.14c0.37,4.98,3.08,9.59,7.43,12.65 C869.78,361.08,870.91,361.42,872.02,361.42z"></path> <path class="st2" d="M852.51,352.56c1.76,0,3.49-0.83,4.58-2.37c1.78-2.53,1.17-6.02-1.36-7.79c-0.94-0.66-2.55-2.11-2.72-4.35 c-0.18-2.43,1.37-5.35,4.36-8.22c3.74-3.58,10.38-4.21,16.16-1.53c2.8,1.31,6.13,0.08,7.43-2.72c1.3-2.8,0.08-6.13-2.72-7.43 c-10.01-4.65-21.51-3.2-28.61,3.6c-6.99,6.7-8.09,13.02-7.78,17.14c0.37,4.98,3.09,9.59,7.44,12.66 C850.27,352.23,851.4,352.56,852.51,352.56z"></path> <path class="st9" d="M934.88,389.29c2.21,0,4.42-0.57,6.52-1.72c6.63-3.63,10.99-12.44,10.59-21.43 c-0.42-9.63-6.07-17.52-15.5-21.65c-2.83-1.24-6.13,0.05-7.37,2.88c-1.24,2.83,0.05,6.13,2.88,7.37c6.99,3.06,8.65,8.16,8.81,11.9 c0.23,5.13-2.31,9.78-4.78,11.13c-0.82,0.44-1.55,0.55-2.7-0.26c-2.52-1.78-6.02-1.17-7.8,1.35c-1.78,2.53-1.17,6.01,1.35,7.79 C929.39,388.4,932.13,389.29,934.88,389.29z"></path> <path class="st9" d="M915.54,380.64c2.21,0,4.42-0.57,6.52-1.72c6.63-3.62,10.99-12.44,10.59-21.43 c-0.42-9.63-6.07-17.52-15.5-21.65c-2.83-1.25-6.13,0.05-7.37,2.88c-1.24,2.83,0.05,6.13,2.88,7.37c6.99,3.06,8.65,8.16,8.81,11.9 c0.23,5.13-2.31,9.78-4.78,11.13c-0.82,0.44-1.54,0.55-2.7-0.26c-2.53-1.78-6.02-1.17-7.8,1.35c-1.78,2.53-1.17,6.01,1.35,7.79 C910.05,379.75,912.79,380.64,915.54,380.64z"></path> <path class="st9" d="M896.03,371.78c2.21,0,4.42-0.57,6.52-1.72c6.63-3.63,10.99-12.44,10.59-21.44 c-0.42-9.63-6.07-17.52-15.5-21.65c-2.84-1.25-6.13,0.05-7.37,2.88c-1.24,2.83,0.05,6.13,2.88,7.37 c6.99,3.06,8.65,8.16,8.81,11.89c0.22,5.14-2.31,9.78-4.78,11.13c-0.82,0.44-1.55,0.55-2.7-0.26c-2.52-1.78-6.02-1.17-7.8,1.35 c-1.78,2.53-1.17,6.01,1.35,7.79C890.54,370.9,893.28,371.78,896.03,371.78z"></path> <path class="st9" d="M876.79,363.04c2.21,0,4.42-0.57,6.53-1.72c6.63-3.63,10.98-12.44,10.58-21.44 c-0.42-9.63-6.07-17.52-15.5-21.65c-2.82-1.25-6.13,0.05-7.37,2.88c-1.24,2.83,0.05,6.13,2.88,7.37c6.99,3.06,8.65,8.16,8.81,11.9 c0.22,5.14-2.31,9.78-4.78,11.13c-0.81,0.44-1.54,0.55-2.7-0.26c-2.52-1.78-6.01-1.17-7.79,1.35c-1.78,2.53-1.17,6.02,1.36,7.79 C871.3,362.15,874.04,363.04,876.79,363.04z"></path> <path class="st9" d="M857.28,354.19c2.21,0,4.42-0.57,6.52-1.72c6.63-3.63,10.99-12.44,10.59-21.44 c-0.42-9.63-6.07-17.52-15.5-21.65c-2.84-1.25-6.13,0.05-7.37,2.88c-1.24,2.83,0.05,6.13,2.88,7.37 c6.99,3.06,8.65,8.16,8.81,11.89c0.23,5.14-2.31,9.78-4.78,11.13c-0.82,0.45-1.55,0.56-2.7-0.26c-2.53-1.78-6.02-1.17-7.8,1.35 c-1.78,2.53-1.17,6.01,1.35,7.79C851.79,353.3,854.53,354.19,857.28,354.19z"></path> <path class="st6" d="M902.02,364.52c0.55,0,1.09-0.23,1.47-0.69c3.92-4.73,6.56-13.56,3.1-21.78c-0.41-0.97-1.53-1.42-2.49-1.01 c-0.97,0.41-1.42,1.52-1.02,2.49c2.72,6.46,0.79,13.88-2.52,17.88c-0.67,0.81-0.56,2.01,0.25,2.68 C901.16,364.38,901.59,364.52,902.02,364.52z"></path> <path class="st6" d="M882.92,355.6c0.55,0,1.11-0.24,1.49-0.71c3.92-4.88,6.44-13.87,2.72-22.07c-0.43-0.96-1.56-1.39-2.52-0.95 c-0.96,0.43-1.38,1.56-0.95,2.52c2.92,6.44,1.09,13.99-2.23,18.12c-0.66,0.82-0.52,2.02,0.29,2.68 C882.08,355.46,882.5,355.6,882.92,355.6z"></path> <path class="st6" d="M863.21,346.99c0.54,0,1.08-0.23,1.46-0.68c3.77-4.5,6.37-12.61,3.66-20.56c-0.34-1-1.43-1.53-2.42-1.19 c-1,0.34-1.53,1.42-1.19,2.41c2.22,6.52,0.02,13.32-2.97,16.89c-0.68,0.81-0.57,2.01,0.24,2.68 C862.35,346.85,862.78,346.99,863.21,346.99z"></path> <path class="st6" d="M945.44,423.46c0.83,0,1.67-0.23,2.42-0.71c2.08-1.34,2.68-4.11,1.34-6.18c-2.34-3.63-5.71-6.34-9.77-7.85 l-21.17-7.86c-2.32-0.87-4.9,0.32-5.75,2.63c-0.86,2.32,0.32,4.89,2.63,5.75l21.17,7.87c2.23,0.83,4.08,2.32,5.36,4.3 C942.53,422.73,943.97,423.46,945.44,423.46z"></path> <path class="st1" d="M907.97,421.48c2.22,0,4.42-0.94,5.97-2.76c2.8-3.29,2.4-8.24-0.9-11.04l-85.19-72.39 c-3.29-2.8-8.24-2.4-11.04,0.9c-2.8,3.29-2.4,8.24,0.9,11.04l85.19,72.39C904.38,420.87,906.18,421.48,907.97,421.48z"></path> <path class="st3" d="M926.1,421.66c4.23,0,8.28-2.41,10.17-6.5c2.59-5.61,0.14-12.26-5.47-14.84l-72.86-33.6 c-14.73-6.78-32.07-4.23-44.2,6.52l-3.89,3.44c-4.63,4.1-5.05,11.16-0.96,15.79c4.1,4.63,11.17,5.05,15.79,0.96l3.89-3.44 c5.49-4.86,13.34-6.03,20-2.95l72.86,33.6C922.94,421.33,924.53,421.66,926.1,421.66z"></path> <path class="st6" d="M820.38,382.83c0.9,0,1.8-0.31,2.52-0.96c6.68-5.92,16.14-7.98,24.68-5.38c2.02,0.61,4.14-0.52,4.75-2.53 c0.61-2.01-0.52-4.14-2.53-4.75c-11.04-3.37-23.29-0.7-31.95,6.97c-1.57,1.39-1.72,3.8-0.33,5.37 C818.28,382.4,819.33,382.83,820.38,382.83z"></path> <path class="st6" d="M884.74,392.5c1.45,0,2.84-0.83,3.47-2.24c0.86-1.92,0.01-4.17-1.91-5.03c-8.62-3.88-17.25-7.75-23.93-10.7 c-1.93-0.86-4.18,0.03-5.02,1.95c-0.85,1.92,0.03,4.17,1.95,5.02c6.67,2.94,15.27,6.8,23.87,10.67 C883.69,392.39,884.22,392.5,884.74,392.5z"></path> </g> <path class="st13" d="M584.79,405.45l58.94,11.65c4.82,0.95,9.51-2.18,10.46-7.01l4.73-23.92c0.95-4.82-2.18-9.51-7.01-10.46 l-58.94-11.65c-4.82-0.95-9.51,2.18-10.46,7.01l-4.73,23.92C576.83,399.81,579.96,404.5,584.79,405.45z"></path> <path class="st14" d="M569.83,402.29l58.94,11.65c4.82,0.95,9.51-2.18,10.46-7.01l4.73-23.92c0.95-4.82-2.18-9.51-7.01-10.46 l-58.94-11.65c-4.82-0.95-9.51,2.18-10.46,7.01l-4.73,23.92C561.87,396.66,565.01,401.34,569.83,402.29z"></path> <path class="st13" d="M625.72,411.2l-52.03-10.28c-4.7-0.93-7.77-5.51-6.84-10.21l4-20.21c0.45-2.28,1.76-4.24,3.69-5.54 c1.93-1.29,4.24-1.76,6.52-1.31l52.03,10.29c4.7,0.93,7.77,5.51,6.84,10.21l-4,20.21c-0.45,2.28-1.76,4.24-3.69,5.54 c-1.45,0.97-3.11,1.47-4.82,1.47C626.86,411.37,626.29,411.32,625.72,411.2z M573.14,370.95l-4,20.21c-0.68,3.44,1.56,6.79,5,7.47 l52.03,10.28c3.44,0.68,6.78-1.56,7.46-5l4-20.21c0.33-1.66-0.01-3.36-0.95-4.77c-0.94-1.41-2.38-2.37-4.05-2.7l-52.03-10.29 c-0.41-0.08-0.83-0.12-1.23-0.12C576.4,365.83,573.74,367.93,573.14,370.95z"></path> <path class="st13" d="M657.21,388.97l29.02,9.41c0.95,0.31,1.59,1.19,1.59,2.18v9.16c0,1.38-1.2,2.44-2.57,2.28l-35.89-4.31 L657.21,388.97z"></path> <polygon class="st5" points="661.89,390.58 658.45,408.79 654.54,408.32 658.21,389.3 "></polygon> <path class="st2" d="M439.32,337.98c2.68,0.8,5.63-0.41,6.93-2.99l20.91-41.44c1.46-2.9,0.29-6.44-2.61-7.91 c-2.88-1.48-6.44-0.3-7.9,2.6l-20.91,41.44c-1.46,2.9-0.29,6.44,2.61,7.91C438.67,337.75,438.99,337.88,439.32,337.98z"></path> <path class="st4" d="M420.31,375.65c2.68,0.8,5.63-0.41,6.93-2.99l19.01-37.67c1.46-2.9,0.29-6.44-2.61-7.91 c-2.88-1.47-6.44-0.3-7.9,2.6l-19.01,37.68c-1.46,2.9-0.3,6.44,2.61,7.91C419.66,375.43,419.98,375.55,420.31,375.65z"></path> <path class="st7" d="M461.09,374.36c-2.94,4.13-8.78,4.43-11.55,0.64c-6.19-8.48-8.16-15.38-9.56-19.47 c-2.93-8.54-7.36-13.23-11.14-20.29c-2.03-3.79,1.8-8.51,5.87-7.22c2.52,0.8,4.78,2.27,6.56,4.34l19.47,22.68 C464.62,359.55,466.17,367.23,461.09,374.36z"></path> <g> <path class="st0" d="M535.86,292.2c-10.16-10.16-15.76-23.67-15.76-38.04V88.76c0-14.37,5.6-27.88,15.76-38.04 c10.16-10.16,23.67-15.76,38.04-15.76h165.4c14.37,0,27.88,5.6,38.04,15.76c10.16,10.16,15.76,23.67,15.76,38.04v165.4 c0,14.37-5.6,27.88-15.76,38.04s-23.67,15.76-38.04,15.76H573.9C559.53,307.96,546.02,302.36,535.86,292.2z M573.9,44.32 c-24.5,0-44.44,19.93-44.44,44.44v165.4c0,24.5,19.93,44.44,44.44,44.44h165.4c24.5,0,44.44-19.94,44.44-44.44V88.76 c0-24.5-19.93-44.44-44.44-44.44H573.9z"></path> <path class="st6" d="M770.23,146.09c0.43,9.18-6.66,16.96-15.84,17.39c-9.18,0.43-16.96-6.66-17.39-15.84 c-0.43-9.18,6.66-16.96,15.84-17.39C762.01,129.82,769.8,136.91,770.23,146.09z"></path> <path class="st8" d="M743.56,143.71c0.89,0,1.76-0.46,2.24-1.29c1.01-1.76,2.48-3.22,4.25-4.21c1.24-0.7,1.67-2.27,0.98-3.51 c-0.7-1.24-2.27-1.68-3.51-0.98c-2.56,1.45-4.7,3.57-6.17,6.13c-0.71,1.23-0.29,2.81,0.95,3.52 C742.68,143.6,743.12,143.71,743.56,143.71z"></path> <path class="st3" d="M678.08,197.16c0.43,9.18-6.66,16.96-15.84,17.39s-16.96-6.66-17.39-15.84c-0.43-9.18,6.66-16.96,15.84-17.39 C669.86,180.89,677.65,187.98,678.08,197.16z"></path> <path class="st5" d="M665.78,198.99c0.54,0,1.1-0.13,1.61-0.41l24.44-13.24c1.64-0.89,2.26-2.95,1.37-4.59 c-0.89-1.64-2.94-2.26-4.59-1.37l-24.44,13.24c-1.64,0.89-2.26,2.95-1.37,4.59C663.41,198.35,664.57,198.99,665.78,198.99z"></path> <path class="st5" d="M672.06,195.49c0.18,3.87-2.81,7.15-6.67,7.33c-3.87,0.18-7.15-2.81-7.33-6.67 c-0.18-3.87,2.81-7.15,6.67-7.33C668.6,188.64,671.88,191.63,672.06,195.49z"></path> <path class="st5" d="M754.37,143.22c0.18,3.87-2.81,7.15-6.67,7.33c-3.87,0.18-7.15-2.81-7.33-6.67 c-0.18-3.87,2.81-7.15,6.67-7.33C750.91,136.36,754.19,139.35,754.37,143.22z"></path> <path class="st5" d="M745.43,146.32c1.26,0,2.47-0.71,3.06-1.92c0.81-1.69,0.1-3.71-1.58-4.52l-42.79-20.62 c-1.69-0.8-3.71-0.1-4.52,1.58s-0.1,3.71,1.58,4.52l42.79,20.62C744.44,146.21,744.94,146.32,745.43,146.32z"></path> <path class="st2" d="M726.63,121.19c0.62,13.24-9.61,24.48-22.85,25.1c-13.24,0.62-24.48-9.61-25.1-22.85 c-0.62-13.24,9.61-24.48,22.85-25.1C714.77,97.71,726.01,107.95,726.63,121.19z"></path> <path class="st5" d="M690.21,185.75c1.57,0,2.98-1.1,3.31-2.7l9.77-47.16c0.38-1.83-0.8-3.63-2.63-4.01 c-1.83-0.38-3.62,0.8-4.01,2.63l-9.77,47.16c-0.38,1.83,0.8,3.63,2.63,4.01C689.75,185.73,689.99,185.75,690.21,185.75z"></path> <path class="st3" d="M607.46,143.54c0.43,9.18-6.66,16.96-15.84,17.39c-9.18,0.43-16.96-6.66-17.39-15.84 c-0.43-9.18,6.66-16.96,15.84-17.39C599.24,127.27,607.03,134.36,607.46,143.54z"></path> <path class="st5" d="M602.25,144.97c0.18,3.87-2.81,7.15-6.67,7.33c-3.87,0.18-7.15-2.81-7.33-6.67 c-0.18-3.87,2.81-7.15,6.67-7.33C598.79,138.11,602.07,141.1,602.25,144.97z"></path> <path class="st1" d="M714.19,181.24c0.62,13.24-9.61,24.48-22.85,25.1c-13.24,0.62-24.48-9.61-25.1-22.85 c-0.62-13.24,9.61-24.48,22.85-25.1C702.33,157.76,713.57,168,714.19,181.24z"></path> <path class="st5" d="M675.05,179.48c1.33,0,2.59-0.79,3.13-2.09c0.71-1.73-0.11-3.71-1.84-4.43l-52.22-21.59 c-1.73-0.73-3.71,0.1-4.43,1.84c-0.71,1.73,0.11,3.71,1.84,4.43l52.22,21.59C674.18,179.4,674.62,179.48,675.05,179.48z"></path> <path class="st5" d="M721.91,233.06c0.65,0,1.3-0.19,1.88-0.57c1.55-1.04,1.97-3.15,0.93-4.7l-22.45-33.51 c-1.04-1.55-3.14-1.97-4.7-0.93c-1.55,1.04-1.97,3.15-0.93,4.7l22.45,33.51C719.75,232.53,720.82,233.06,721.91,233.06z"></path> <path class="st5" d="M622.83,157.9c0.21,0,0.43-0.02,0.64-0.06c1.84-0.35,3.04-2.13,2.69-3.97l-11.09-57.68 c-0.35-1.84-2.16-3.04-3.96-2.69c-1.84,0.35-3.04,2.13-2.69,3.97l11.09,57.68C619.82,156.77,621.24,157.9,622.83,157.9z"></path> <path class="st5" d="M622.83,157.9c1.44,0,2.77-0.92,3.23-2.36c0.57-1.78-0.41-3.69-2.2-4.26l-25.42-8.1 c-1.78-0.56-3.69,0.42-4.26,2.2c-0.57,1.78,0.41,3.69,2.2,4.26l25.42,8.1C622.15,157.85,622.49,157.9,622.83,157.9z"></path> <path class="st1" d="M646.81,153.39c0.62,13.24-9.61,24.48-22.85,25.1c-13.24,0.62-24.48-9.61-25.1-22.85 c-0.62-13.24,9.61-24.48,22.85-25.1C634.95,129.91,646.19,140.15,646.81,153.39z"></path> <path class="st6" d="M607.42,148.97c1.15,0,2.26-0.6,2.87-1.66c1.3-2.26,3.18-4.13,5.44-5.41c1.59-0.9,2.15-2.91,1.25-4.5 c-0.9-1.59-2.92-2.15-4.5-1.25c-3.29,1.86-6.03,4.58-7.92,7.86c-0.91,1.58-0.36,3.6,1.21,4.51 C606.3,148.83,606.86,148.97,607.42,148.97z"></path> <path class="st6" d="M686.98,117.75c1.14,0,2.26-0.59,2.87-1.66c1.3-2.26,3.18-4.13,5.44-5.4c1.59-0.9,2.15-2.91,1.26-4.5 c-0.9-1.59-2.91-2.15-4.5-1.25c-3.3,1.86-6.04,4.58-7.93,7.86c-0.91,1.58-0.37,3.6,1.22,4.51 C685.85,117.61,686.42,117.75,686.98,117.75z"></path> <path class="st6" d="M675.28,176.95c1.14,0,2.26-0.59,2.87-1.66c1.3-2.26,3.18-4.13,5.44-5.41c1.59-0.9,2.15-2.91,1.25-4.5 c-0.9-1.58-2.92-2.15-4.5-1.25c-3.29,1.86-6.03,4.58-7.92,7.86c-0.91,1.58-0.37,3.6,1.21,4.51 C674.16,176.81,674.73,176.95,675.28,176.95z"></path> <path class="st5" d="M620.86,159.88c0.18,3.87-2.81,7.15-6.67,7.33c-3.87,0.18-7.15-2.81-7.33-6.67 c-0.18-3.87,2.81-7.15,6.67-7.33C617.4,153.03,620.68,156.02,620.86,159.88z"></path> <path class="st5" d="M705.28,194.13c0.18,3.87-2.81,7.15-6.67,7.33c-3.87,0.18-7.15-2.81-7.33-6.67 c-0.18-3.87,2.81-7.15,6.67-7.33C701.82,187.28,705.1,190.27,705.28,194.13z"></path> <path class="st5" d="M682.94,176.17c0.18,3.87-2.81,7.15-6.67,7.33c-3.87,0.18-7.15-2.81-7.33-6.67 c-0.18-3.87,2.81-7.15,6.67-7.33C679.47,169.32,682.76,172.3,682.94,176.17z"></path> <path class="st5" d="M707.05,133.57c0.18,3.87-2.81,7.15-6.67,7.33c-3.87,0.18-7.15-2.81-7.33-6.67 c-0.18-3.87,2.81-7.15,6.67-7.33C703.59,126.72,706.87,129.71,707.05,133.57z"></path> <path class="st5" d="M569.85,193.16c0.65,0,1.29-0.18,1.87-0.57l44.03-29.3c1.56-1.04,1.98-3.14,0.95-4.7 c-1.04-1.55-3.14-1.97-4.7-0.94l-44.03,29.3c-1.56,1.04-1.98,3.14-0.95,4.7C567.67,192.63,568.75,193.16,569.85,193.16z"></path> <path class="st6" d="M586.46,189c0.43,9.18-6.66,16.96-15.84,17.39c-9.18,0.43-16.96-6.66-17.39-15.84 c-0.43-9.18,6.66-16.96,15.84-17.39C578.24,172.73,586.03,179.82,586.46,189z"></path> <path class="st6" d="M628.36,96.05c0.43,9.18-6.66,16.96-15.84,17.39c-9.18,0.43-16.96-6.66-17.39-15.84 c-0.43-9.18,6.66-16.96,15.84-17.39C620.15,79.78,627.93,86.88,628.36,96.05z"></path> <path class="st6" d="M738.52,228.89c0.43,9.18-6.66,16.96-15.84,17.39c-9.18,0.43-16.96-6.66-17.39-15.84 c-0.43-9.18,6.66-16.96,15.84-17.39C730.31,212.63,738.09,219.72,738.52,228.89z"></path> <path class="st8" d="M712.43,227.93c0.89,0,1.76-0.46,2.24-1.29c1.01-1.76,2.48-3.22,4.24-4.21c1.24-0.7,1.67-2.27,0.98-3.51 c-0.7-1.24-2.26-1.68-3.51-0.98c-2.57,1.45-4.7,3.57-6.17,6.13c-0.71,1.23-0.28,2.81,0.95,3.52 C711.55,227.82,711.99,227.93,712.43,227.93z"></path> <path class="st8" d="M602.97,94.85c0.89,0,1.76-0.46,2.24-1.29c1.01-1.76,2.48-3.22,4.25-4.21c1.24-0.7,1.67-2.27,0.98-3.51 c-0.7-1.24-2.27-1.68-3.51-0.98c-2.57,1.45-4.7,3.57-6.18,6.13c-0.71,1.23-0.28,2.81,0.95,3.52 C602.09,94.74,602.54,94.85,602.97,94.85z"></path> <path class="st8" d="M560.61,188.57c0.89,0,1.76-0.46,2.24-1.29c1.01-1.76,2.48-3.22,4.24-4.21c1.24-0.7,1.68-2.27,0.98-3.51 c-0.69-1.24-2.26-1.69-3.51-0.98c-2.57,1.45-4.71,3.57-6.18,6.13c-0.71,1.23-0.28,2.81,0.95,3.52 C559.73,188.46,560.18,188.57,560.61,188.57z"></path> <path class="st6" d="M580.93,141.47c0.89,0,1.76-0.46,2.24-1.29c1.01-1.76,2.48-3.22,4.25-4.22c1.24-0.7,1.67-2.27,0.98-3.51 c-0.7-1.24-2.27-1.67-3.51-0.97c-2.57,1.45-4.7,3.57-6.18,6.13c-0.71,1.23-0.28,2.81,0.95,3.52 C580.05,141.36,580.49,141.47,580.93,141.47z"></path> <path class="st6" d="M651.81,194.78c0.89,0,1.76-0.47,2.24-1.29c1.01-1.76,2.48-3.21,4.24-4.21c1.24-0.7,1.67-2.27,0.98-3.51 c-0.7-1.24-2.26-1.68-3.51-0.98c-2.57,1.45-4.71,3.57-6.17,6.13c-0.71,1.23-0.28,2.81,0.95,3.52 C650.94,194.67,651.38,194.78,651.81,194.78z"></path> </g> <rect x="434.02" y="658.49" transform="matrix(-1 -4.489488e-11 4.489488e-11 -1 1013.5375 1330.4882)" class="st15" width="145.5" height="13.51"></rect> <path class="st8" d="M440.77,669.59h54.55c0.93,0,1.68-0.75,1.68-1.68v-4.6c0-0.93-0.75-1.68-1.68-1.68h-54.55 c-0.93,0-1.68,0.75-1.68,1.68v4.6C439.09,668.83,439.84,669.59,440.77,669.59z"></path> <path class="st1" d="M378.94,572.93l-6.12-4.03c-1.02-0.67-1.3-2.03-0.63-3.05l12.7-19.29l9.8,6.45l-12.7,19.29 C381.32,573.32,379.96,573.6,378.94,572.93z"></path> <rect x="377.79" y="560.32" transform="matrix(0.5498 -0.8353 0.8353 0.5498 -302.3106 571.4684)" class="st16" width="2.4" height="11.73"></rect> <polygon class="st5" points="376.85,558.78 388.57,562.31 394.69,553.02 390.45,550.23 382.48,550.23 "></polygon> <path class="st6" d="M373.65,528.98L373.65,528.98l54.67,8.43l4.86-14.66c3.26-9.83-4.06-19.97-14.42-19.97h-8.83 C393.45,502.79,378.83,513.34,373.65,528.98z"></path> <path class="st17" d="M418.76,502.79h-8.83c-2.27,0-4.51,0.21-6.69,0.6c8,2.3,12.98,10.94,10.19,19.37l-3.9,11.76l18.79,2.9 l4.86-14.66C436.43,512.92,429.11,502.79,418.76,502.79z"></path> <path class="st17" d="M436.33,654.62L436.33,654.62c-1.93,0-3.69-1.1-4.54-2.83l-2.17-4.43c-2.95-6.01-9.06-9.83-15.76-9.83h-14.83 c-16.22,0-29.37-13.15-29.37-29.37v-35.1c0-13.84,11.22-25.06,25.06-25.06h23.9c3.69,0,6.96-2.36,8.12-5.87l5.08-15.32h-37.82 c-34.6,0-64.63,23.86-72.46,57.56L306,651.36c-0.44,1.91-2.14,3.26-4.1,3.26l0,0c-1.93,0-3.61,1.31-4.08,3.17l-3.62,14.15h154.49 l-7.9-14.66C439.9,655.64,438.19,654.62,436.33,654.62z"></path> <path class="st5" d="M373.83,529.59c-15.29,4.31-28.72,13.41-38.4,25.77h41.55c4.54-4.55,10.81-7.37,17.74-7.37l-0.11-3.14 C394.26,534.25,384.06,526.71,373.83,529.59z"></path> <path class="st5" d="M402.87,612.08l-42.67,7.66v-19.19h49.52v3.34C409.72,607.91,406.84,611.36,402.87,612.08z"></path> <path class="st5" d="M383.36,641.05c-0.13,0-0.26-0.01-0.4-0.04c-14.56-2.94-25.12-15.87-25.12-30.74v-35 c0-1.1,0.89-1.99,1.99-1.99c1.1,0,1.99,0.89,1.99,1.99v35c0,12.98,9.22,24.27,21.93,26.84c1.08,0.22,1.77,1.27,1.56,2.34 C385.12,640.4,384.29,641.05,383.36,641.05z"></path> <path class="st6" d="M406.14,654.62L406.14,654.62c-1.93,0-3.69-1.1-4.54-2.83l-2.17-4.43c-2.95-6.01-9.06-9.83-15.76-9.83h-4.29 c-16.22,0-29.37-13.15-29.37-29.37v-35.1c0-13.84,11.22-25.06,25.06-25.06h19.81c6.13,0,11.57-3.93,13.5-9.75l2.07-6.25 c0.85-2.56-1.06-5.19-3.75-5.19h-32.35c-34.6,0-64.63,23.86-72.46,57.56l-15.56,66.99c-0.44,1.91-2.14,3.26-4.1,3.26l0,0 c-1.93,0-3.61,1.31-4.08,3.17l-3.62,14.15h143.96l-7.9-14.66C409.71,655.64,408,654.62,406.14,654.62z"></path> <polygon class="st5" points="274.53,671.94 294.19,671.94 429.02,671.94 448.68,671.94 446.54,667.95 275.55,667.95 "></polygon> <path class="st5" d="M374.49,526.7h57.37l1.32-3.99h-56.81C375.68,524,375.05,525.33,374.49,526.7z"></path> <path class="st5" d="M424.55,516.16l-8.63-13.17l35.52-23.26c2.69-1.76,6.3-1.01,8.06,1.68l5.47,8.35c1.76,2.69,1.01,6.3-1.68,8.06 l-30.6,20.03C429.97,519.64,426.33,518.88,424.55,516.16z"></path> <path class="st16" d="M426.06,601.6h-68.95c-2.17,0-3.93-1.76-3.93-3.93l0,0c0-2.17,1.76-3.93,3.93-3.93h68.95 c2.17,0,3.93,1.76,3.93,3.93l0,0C430,599.84,428.24,601.6,426.06,601.6z"></path> <path class="st16" d="M458.96,495.61l-7.22-11.03c-1.28-1.95-0.73-4.57,1.22-5.85l0,0c1.95-1.28,4.57-0.73,5.85,1.22l7.22,11.03 c1.28,1.95,0.73,4.57-1.22,5.85l0,0C462.86,498.1,460.24,497.56,458.96,495.61z"></path> <path class="st16" d="M455.38,502.49c-1.41,0-2.79-0.69-3.62-1.96l-7.3-11.15c-1.05-1.61-0.98-3.7,0.13-5.17l-5.66,3.71 c0.19,1.48,0.74,2.92,1.57,4.19l7.11,10.86c0.82,1.25,1.89,2.31,3.15,3.06l5.6-3.66C456.03,502.44,455.71,502.49,455.38,502.49z"></path> <path class="st1" d="M460.27,493.4l-6.03-9.23c-0.59-0.89-0.34-2.09,0.56-2.68l0,0c0.89-0.59,2.09-0.34,2.68,0.56l6.03,9.23 c0.59,0.89,0.34,2.09-0.56,2.68l0,0C462.05,494.55,460.85,494.3,460.27,493.4z"></path> <path class="st5" d="M321.94,652.48h5.94c6.79,0,12.3-5.5,12.3-12.3s-5.51-12.3-12.3-12.3h-5.94V652.48z"></path> <circle class="st16" cx="321.94" cy="640.18" r="12.3"></circle> <path class="st8" d="M321.94,649.64c-2.59,0-5.02-1.03-6.81-2.9c-0.46-0.48-0.44-1.24,0.03-1.7c0.48-0.45,1.24-0.44,1.7,0.03 c1.34,1.4,3.15,2.16,5.08,2.16c3.89,0,7.05-3.16,7.05-7.05c0-1.98-0.84-3.88-2.31-5.22c-0.49-0.45-0.53-1.21-0.08-1.7 c0.45-0.49,1.21-0.53,1.7-0.08c1.97,1.79,3.1,4.34,3.1,7C331.4,645.39,327.16,649.64,321.94,649.64z"></path> <path class="st1" d="M398.34,585.49h7.32c1.22,0,2.2-0.99,2.2-2.2v-23.09h-11.73v23.09C396.14,584.5,397.12,585.49,398.34,585.49z"></path> <polygon class="st5" points="396.14,564.45 407.87,567.99 407.87,560.19 396.14,560.19 "></polygon> <path class="st8" d="M322.17,633.14c-0.02,0-0.03,0-0.05,0c-0.65-0.03-1.28-0.57-1.26-1.23c0.01-0.66,0.43-1.18,1.09-1.18 c0.02,0,0.26,0.01,0.28,0.01c0.66,0.03,1.18,0.59,1.15,1.25C323.35,632.63,322.81,633.14,322.17,633.14z"></path> <path class="st6" d="M382.04,576.31l8.27,2.63c1.37,0.44,2.84-0.32,3.28-1.7l5.85-18.41l-13.24-4.21l-5.85,18.41 C379.91,574.41,380.67,575.87,382.04,576.31z"></path> <polygon class="st1" points="384.19,560.94 397.5,564.95 399.44,558.84 386.2,554.63 "></polygon> <path class="st4" d="M407.22,564.72l-28.83-8.69c-1.29-0.39-2.18-1.58-2.18-2.93V548h42.38l-6.38,14.42 C411.37,564.34,409.22,565.32,407.22,564.72z"></path> <polygon class="st1" points="376.21,551.86 416.89,551.86 418.6,548 376.21,548 "></polygon> <rect x="396.14" y="575.6" class="st16" width="11.73" height="2.4"></rect> <rect x="388.4" y="559.9" transform="matrix(0.3032 -0.9529 0.9529 0.3032 -268.6816 766.2568)" class="st1" width="2.41" height="13.89"></rect> <path class="st5" d="M497,672h114.77c3.11,0,5.63-2.52,5.63-5.63v-2.25c0-3.11-2.52-5.63-5.63-5.63H497l0,0 c4.75,3.01,4.98,9.87,0.44,13.19L497,672z"></path> </g> </svg> 